<?xml version="1.0" standalone="no"?>
<!DOCTYPE svg PUBLIC "-//W3C//DTD SVG 20010904//EN"
 "http://www.w3.org/TR/2001/REC-SVG-20010904/DTD/svg10.dtd">
<svg version="1.0" xmlns="http://www.w3.org/2000/svg"
 width="494.000000pt" height="494.000000pt" viewBox="0 0 494.000000 494.000000"
 preserveAspectRatio="xMidYMid meet">
<metadata>
Created by potrace 1.11, written by Peter Selinger 2001-2013
</metadata>
<g transform="translate(0.000000,494.000000) scale(0.100000,-0.100000)"
fill="#000000" stroke="none">
<path d="M893 4728 c-21 -5 -38 -19 -47 -37 -8 -15 -49 -133 -91 -262 -261
-802 -455 -1398 -465 -1434 -12 -40 -226 -705 -250 -775 -32 -92 -39 -137 -29
-182 18 -79 -81 -2 1229 -952 190 -138 350 -254 355 -259 6 -4 64 -47 130 -94
66 -48 194 -141 285 -207 91 -66 194 -141 230 -167 36 -26 99 -73 140 -103 41
-31 81 -56 87 -56 11 0 169 112 418 295 39 28 475 346 970 705 495 359 930
676 967 703 76 57 108 108 108 175 0 27 -48 189 -131 445 -72 221 -136 418
-141 437 -9 31 -452 1402 -529 1637 -41 123 -83 158 -155 128 -49 -20 -27 38
-279 -740 -109 -335 -212 -652 -289 -890 l-33 -100 -904 -2 -904 -3 -275 847
c-151 465 -281 854 -290 865 -20 25 -68 37 -107 26z"/>
</g>
</svg>
